<?xml version="1.0" encoding="utf-8"?>
<!-- Generator: Adobe Illustrator 26.3.1, SVG Export Plug-In . SVG Version: 6.00 Build 0)  -->
<svg version="1.1" id="Layer_1" xmlns="http://www.w3.org/2000/svg" xmlns:xlink="http://www.w3.org/1999/xlink" x="0px" y="0px"
	 viewBox="0 0 1461.3 145.8" style="enable-background:new 0 0 1461.3 145.8;" xml:space="preserve">
<style type="text/css">
	.st0{fill:#EE2F24;}
</style>
<g>
	<path class="st0" d="M90.2,106.3l-5.2-14.2c-0.6-1.5-1.2-2.5-1.8-2.9c-0.6-0.4-1.9-0.6-3.9-0.6H53.4c-1.9,0-3.3,0.3-4,1
		c-0.7,0.7-1.7,2.5-2.8,5.5l-4.2,11.2c-0.4,1.1-0.6,2.1-0.6,3.1c0,3.1,1.9,4.7,5.7,4.7c1,0,2.3-0.1,4.1-0.3c1.8-0.2,3.1-0.3,4-0.3
		c4,0,6,1.7,6,5.1c0,3.2-2.2,4.8-6.5,4.8c-0.8,0-1.8-0.1-3.2-0.3l-7.3-0.9c-1.4-0.2-3.6-0.3-6.7-0.3c-3.4,0-5.8,0.1-7.1,0.2
		l-6.1,0.7c-2.7,0.3-4.7,0.5-6,0.5c-3.8,0-5.7-1.6-5.7-4.8c0-3.4,1.8-5.1,5.5-5.1c0.8,0,1.4,0.2,1.7,0.6h1.9c2.6,0,4.6-1,6-3.1
		c0.6-0.8,1.5-3.1,2.9-6.9l27-73.4c1.5-4.1,4.6-6.1,9.2-6.1c4.5,0,7.4,2,8.9,6.1l26,72.1c1.6,4.6,3.1,7.6,4.5,9
		c1.4,1.5,3.3,2.2,5.8,2.2c0.8,0,1.4-0.1,1.7-0.2l4.1-0.4c3.7,0,5.5,1.6,5.5,4.8c0,3.4-1.8,5.1-5.5,5.1c-1.1,0-2.5-0.1-4.2-0.3
		c-6.1-0.8-10.7-1.1-13.7-1.1c-3.6,0-9.4,0.4-17.4,1.2c-2,0.2-3.6,0.3-4.7,0.3c-3.9,0-5.8-1.6-5.8-4.9c0-3.3,2.1-4.9,6.4-4.9
		c0.9,0,2.2,0.1,3.9,0.3c1.7,0.2,3,0.3,3.9,0.3c3.2,0,4.8-1.3,4.8-3.9C91.3,109.7,90.9,108.4,90.2,106.3z M79.7,76.7L66.6,36.5
		L53.2,76.7c-0.2,0.6-0.3,0.9-0.3,1c0,0.9,0.7,1.3,2.2,1.3h23.1c1.2,0,1.7-0.4,1.7-1.2C80,77.6,79.9,77.2,79.7,76.7z"/>
	<path class="st0" d="M200.6,69.1c-2.8,1.4-6.4,2.5-10.8,3.5c5.7,1.1,9.6,3.2,11.7,6.4c2.2,3.2,3.2,8.5,3.2,15.8v6.7
		c0,0.4,0,1,0,1.7c0,7,2.2,10.4,6.6,10.4c4.5,0,6.8-4.1,6.8-12.4v-4.3v-3.6v-2c0-2.8,0.2-4.7,0.6-5.8c0.8-1.6,2.3-2.4,4.5-2.4
		c3.5,0,5.2,2,5.2,6.1c0,0.1,0,1.2-0.1,3.2v3.1c0,2,0,3.3,0,3.9v3.6c-0.1,0.6-0.1,1.5-0.1,2.6c0,5.6-1.6,10-4.7,13.2
		c-3.2,3.2-7.5,4.7-13.2,4.7c-11.4,0-17.2-5.8-17.2-17.3v-4.4v-4.9v-3.2c0-6.5-1.2-10.8-3.7-12.9c-2.5-2.1-7.6-3.1-15.3-3.1h-13.5
		c-3.1,0-4.6,1.9-4.6,5.7v11.2c0,7.2,0.1,11.2,0.3,12.2c0.9,4.8,3.3,7.3,7.3,7.3c1.4,0,2.4-0.1,3.1-0.2c1.6-0.2,2.9-0.3,3.8-0.3
		c3.1,0,4.7,1.6,4.7,4.8c0,3.4-2.1,5.1-6.3,5.1l-2.2-0.3l-7.8-1c-3-0.4-5.7-0.6-8-0.6c-2.9,0-6.3,0.2-10.2,0.7l-7,0.9
		c-1.6,0.2-2.3,0.3-2.2,0.3c-4.2,0-6.3-1.7-6.3-5.2c0-3.1,1.5-4.7,4.5-4.7c0.5,0,1.8,0.1,3.9,0.3c1.1,0.3,2.1,0.4,3.1,0.4
		c4.9,0,7.4-3.6,7.4-10.9V45.1c0-7.3-2.5-10.9-7.4-10.9c-0.8,0-1.9,0.1-3.5,0.4c-1.6,0.2-2.7,0.4-3.5,0.4c-1.3,0-2.3-0.5-3.2-1.4
		c-0.9-0.9-1.3-2-1.3-3.3c0-3.4,2.1-5.1,6.4-5.1c0.4,0,1.1,0,2,0.1l7.4,0.7c1.9,0.2,4.4,0.3,7.3,0.3c3,0,6.3-0.1,10-0.3l11-0.6
		c3.7-0.2,7.1-0.3,10.2-0.3c21.3,0,32,8.1,32,24.3C211.7,59.1,208,65.6,200.6,69.1z M160.4,67.9H174c8.1,0,14.2-1.2,18.3-3.5
		c4.9-2.8,7.4-7.5,7.4-14.1c0-11-7.6-16.6-22.8-16.6c-8.1,0-13.5,0.6-16.4,1.8c-2.9,1.2-4.4,3.6-4.4,7.2v4.7v16.7
		c0,1.6,0.3,2.7,0.9,3.1C157.6,67.7,158.7,67.9,160.4,67.9z"/>
	<path class="st0" d="M309.1,106.3l-5.2-14.2c-0.6-1.5-1.2-2.5-1.8-2.9c-0.6-0.4-1.9-0.6-3.9-0.6h-25.9c-1.9,0-3.3,0.3-4,1
		c-0.7,0.7-1.7,2.5-2.8,5.5l-4.2,11.2c-0.4,1.1-0.6,2.1-0.6,3.1c0,3.1,1.9,4.7,5.7,4.7c1,0,2.3-0.1,4.1-0.3c1.8-0.2,3.1-0.3,4-0.3
		c4,0,6,1.7,6,5.1c0,3.2-2.2,4.8-6.5,4.8c-0.8,0-1.8-0.1-3.2-0.3l-7.3-0.9c-1.4-0.2-3.6-0.3-6.7-0.3c-3.4,0-5.8,0.1-7.1,0.2
		l-6.1,0.7c-2.7,0.3-4.7,0.5-6,0.5c-3.8,0-5.7-1.6-5.7-4.8c0-3.4,1.8-5.1,5.5-5.1c0.8,0,1.4,0.2,1.7,0.6h1.9c2.6,0,4.6-1,6-3.1
		c0.6-0.8,1.5-3.1,2.9-6.9l27-73.4c1.5-4.1,4.6-6.1,9.2-6.1c4.5,0,7.4,2,8.9,6.1l26,72.1c1.6,4.6,3.1,7.6,4.5,9
		c1.4,1.5,3.3,2.2,5.8,2.2c0.8,0,1.4-0.1,1.7-0.2l4.1-0.4c3.7,0,5.5,1.6,5.5,4.8c0,3.4-1.8,5.1-5.5,5.1c-1.1,0-2.5-0.1-4.2-0.3
		c-6.1-0.8-10.7-1.1-13.7-1.1c-3.6,0-9.4,0.4-17.4,1.2c-2,0.2-3.6,0.3-4.7,0.3c-3.9,0-5.8-1.6-5.8-4.9c0-3.3,2.1-4.9,6.4-4.9
		c0.9,0,2.2,0.1,3.9,0.3c1.7,0.2,3,0.3,3.9,0.3c3.2,0,4.8-1.3,4.8-3.9C310.2,109.7,309.9,108.4,309.1,106.3z M298.6,76.7l-13.1-40.1
		l-13.4,40.1c-0.2,0.6-0.3,0.9-0.3,1c0,0.9,0.7,1.3,2.2,1.3h23.1c1.2,0,1.7-0.4,1.7-1.2C298.9,77.6,298.8,77.2,298.6,76.7z"/>
	<path class="st0" d="M361.7,48.2l11.9,61.5l15-75.6c1.3-6.6,4.5-9.9,9.7-9.9c5.5,0,8.8,2.9,9.9,8.7l14.5,77.8l12.4-60.3
		c0.9-4.3,1.3-7.5,1.3-9.7c0-4-2-6-6.1-6c-0.9,0-2.1,0.1-3.8,0.3c-1.6,0.2-2.9,0.3-3.8,0.3c-4.2,0-6.3-1.7-6.3-5.1
		c0-3.3,2-4.9,6.1-4.9c1.5,0,3.1,0.1,4.8,0.3c7.9,1,13.2,1.5,15.7,1.5c1.9,0,4.8-0.3,8.6-0.9c3.8-0.6,6.7-0.9,8.6-0.9
		c3.6,0,5.4,1.7,5.4,5.2c0,3.2-1.7,4.8-5.2,4.8c-0.6,0-1.5-0.1-2.6-0.4c-1.2-0.2-2-0.4-2.6-0.4c-2,0-3.5,0.8-4.4,2.3
		c-0.9,1.6-2,5-3.3,10.5l-16.3,69.3c-1.3,5.3-4.3,8-9,8c-5,0-8.2-3.3-9.4-9.9l-14.7-76.9L382,116.8c-1.1,5.2-3.8,7.8-8.3,7.8
		c-4.6,0-7.5-2.7-8.7-8l-17.3-72.4c-0.9-3.7-2-6.2-3.3-7.5c-1.3-1.3-3.4-2-6.2-2h-1l-3.2,0.4c-3.1,0-4.7-1.6-4.7-4.9
		c0-3.4,1.7-5.2,5.1-5.2c1.4,0,2.9,0.1,4.7,0.4c5.2,0.9,10.3,1.3,15.3,1.3c2.3,0,7.7-0.5,16-1.5c1.5-0.2,2.9-0.3,4.2-0.3
		c3.5,0,5.2,1.6,5.2,4.8c0,3.5-2.1,5.2-6.4,5.2c-0.9,0-2.2-0.1-4-0.3c-1.8-0.2-3.1-0.3-4-0.3c-3.4,0-5.1,1.6-5.1,4.8
		c0,1.2,0.1,2.5,0.4,4.1L361.7,48.2z"/>
	<path class="st0" d="M530.2,106.3l-5.2-14.2c-0.6-1.5-1.2-2.5-1.8-2.9c-0.6-0.4-1.9-0.6-3.9-0.6h-25.9c-1.9,0-3.3,0.3-4,1
		c-0.7,0.7-1.7,2.5-2.8,5.5l-4.2,11.2c-0.4,1.1-0.6,2.1-0.6,3.1c0,3.1,1.9,4.7,5.7,4.7c1,0,2.3-0.1,4.1-0.3c1.8-0.2,3.1-0.3,4-0.3
		c4,0,6,1.7,6,5.1c0,3.2-2.2,4.8-6.5,4.8c-0.8,0-1.8-0.1-3.2-0.3l-7.3-0.9c-1.4-0.2-3.6-0.3-6.7-0.3c-3.4,0-5.8,0.1-7.1,0.2
		l-6.1,0.7c-2.7,0.3-4.7,0.5-6,0.5c-3.8,0-5.7-1.6-5.7-4.8c0-3.4,1.8-5.1,5.5-5.1c0.8,0,1.4,0.2,1.7,0.6h1.9c2.6,0,4.6-1,6-3.1
		c0.6-0.8,1.5-3.1,2.9-6.9l27-73.4c1.5-4.1,4.6-6.1,9.2-6.1c4.5,0,7.4,2,8.9,6.1l26,72.1c1.6,4.6,3.1,7.6,4.5,9
		c1.4,1.5,3.3,2.2,5.8,2.2c0.8,0,1.4-0.1,1.7-0.2l4.1-0.4c3.7,0,5.5,1.6,5.5,4.8c0,3.4-1.8,5.1-5.5,5.1c-1.1,0-2.5-0.1-4.2-0.3
		c-6.1-0.8-10.7-1.1-13.7-1.1c-3.6,0-9.4,0.4-17.4,1.2c-2,0.2-3.6,0.3-4.7,0.3c-3.9,0-5.8-1.6-5.8-4.9c0-3.3,2.1-4.9,6.4-4.9
		c0.9,0,2.2,0.1,3.9,0.3c1.7,0.2,3,0.3,3.9,0.3c3.2,0,4.8-1.3,4.8-3.9C531.3,109.7,530.9,108.4,530.2,106.3z M519.7,76.7l-13.1-40.1
		l-13.4,40.1c-0.2,0.6-0.3,0.9-0.3,1c0,0.9,0.7,1.3,2.2,1.3h23.1c1.2,0,1.7-0.4,1.7-1.2C520,77.6,519.9,77.2,519.7,76.7z"/>
	<path class="st0" d="M605.7,31.7l39,81.3V54.4c0-7.6-0.1-11.7-0.1-12.5c-0.9-5-3.3-7.6-7.3-7.6c-0.8,0-1.9,0.1-3.5,0.4
		c-1.6,0.2-2.7,0.4-3.5,0.4c-1.3,0-2.4-0.5-3.3-1.4c-0.9-0.9-1.4-2-1.4-3.3c0-3.5,2.2-5.2,6.5-5.2c0.9,0,1.5,0,1.9,0.1l6.5,0.9
		c2.9,0.4,5.6,0.6,8.1,0.6c2.5,0,5.9-0.3,10-0.8c1.5-0.2,3.1-0.4,5.1-0.7c0.2,0,0.5,0,1-0.1c0.4,0,0.7,0,1,0c4.2,0,6.3,1.7,6.3,5
		c0,3.2-2,4.9-5.9,4.9c-0.7,0-1.2,0-1.6,0h-1.5c-3,0-4.9,0.6-5.8,1.9s-1.4,4-1.6,8.3v8.3v14.8v38.7c0,6.7-0.8,11.4-2.3,14.1
		c-1.5,2.7-4.1,4.1-7.8,4.1c-4.8,0-8.8-3.4-12.1-10.2l-38.3-79.2v67.6c0,7.3,2.5,10.9,7.4,10.9c0.8,0,1.9-0.1,3.5-0.2
		c1.5-0.1,2.7-0.2,3.5-0.2c3.1,0,4.7,1.6,4.7,4.7c0,3.3-2.2,4.9-6.5,4.9c-0.2,0-0.5,0-0.9,0c-0.5-0.1-0.8-0.1-1-0.1l-6-0.9
		c-3.3-0.5-6.4-0.7-9.3-0.7c-2.5,0-5.8,0.2-9.7,0.7l-7.1,0.9c-0.2,0-0.5,0-1,0.1c-0.5,0-0.9,0-1.2,0c-4.2,0-6.3-1.7-6.3-5.1
		c0-3,1.5-4.5,4.7-4.5c0.5,0,1.8,0.1,3.9,0.3c1.1,0.3,2.1,0.4,3.1,0.4c4.9,0,7.4-3.6,7.4-10.9V93.5V80.7V68.2v-23
		c0-7.3-2.5-10.9-7.5-10.9c-0.7,0-1.6,0.1-2.9,0.3c-1.8,0.3-3.2,0.4-4,0.4c-3.1,0-4.6-1.6-4.6-4.8c0-3.4,2.1-5.1,6.2-5.1
		c0.6,0,1.4,0,2.3,0.1c4.8,0.5,8.6,0.7,11.2,0.7c1.4,0,3.6-0.1,6.5-0.4c2.9-0.3,5.1-0.4,6.5-0.4c3,0,5,1,5.9,3.1L605.7,31.7z"/>
	<path class="st0" d="M744,101.4c0,5.7,0.6,9.1,1.7,10.1c0.9,0.9,2,1.4,3.4,1.6c1.4,0.2,4.6,0.3,9.5,0.3h12.8
		c6.7,0,11.1-0.9,13.4-2.7c2.2-1.8,3.3-5.3,3.3-10.7c0-1.4-0.1-3.1-0.1-5c-0.2-3.7-0.3-6-0.3-6.7c0-4.2,1.7-6.3,5.1-6.3
		c4.1,0,6.1,1.9,6.1,5.8c0,1.2-0.1,2.1-0.1,2.8l-1,7.4c-0.3,2.1-0.4,4.4-0.4,6.7c0,1.4,0.1,3.4,0.4,6c0.2,2.7,0.4,4.7,0.4,6
		c0,4.4-2.5,6.5-7.4,6.5c-1,0-3.2-0.2-6.7-0.5c-2.3-0.2-5.9-0.3-10.8-0.5h-10.9H739c-2.3,0-6.2,0.2-11.6,0.6c-0.8,0-2.1,0.1-4,0.2
		c-1.9,0.1-3.4,0.2-4.4,0.2c-4.1,0-6.1-1.7-6.1-5.2c0-3.1,1.5-4.7,4.5-4.7c0.8,0,1.9,0.1,3.5,0.4c1.5,0.3,2.7,0.4,3.5,0.4
		c4.9,0,7.4-3.6,7.4-10.9V45.1c0-7.2-2.5-10.8-7.4-10.8c-1.4,0-2.4,0.1-3.1,0.3c-1.6,0.3-2.9,0.4-3.9,0.4c-1.3,0-2.3-0.5-3.2-1.4
		c-0.9-0.9-1.3-2.1-1.3-3.4c0-3.4,2.1-5.1,6.3-5.1c0.6,0,1.3,0,2.2,0.1l7.7,0.9c4.3,0.5,7.4,0.7,9.4,0.7c2.5,0,5.6-0.2,9.3-0.7
		l6.7-0.9c0.8-0.1,1.4-0.1,1.9-0.1c4.4,0,6.5,1.7,6.5,5.1c0,1.4-0.4,2.5-1.3,3.4c-0.9,0.9-1.9,1.4-3.2,1.4c-1,0-2.3-0.1-3.9-0.4
		c-0.7-0.2-1.7-0.3-3.1-0.3c-4.9,0-7.4,3.6-7.4,10.7V101.4z"/>
	<path class="st0" d="M850,125.9c-12.9,0-23.1-4.7-30.6-14c-7.5-9.3-11.3-21.9-11.3-37.8c0-16.1,3.8-28.7,11.3-37.9
		c7.6-9.2,18-13.7,31.3-13.7c12.7,0,22.8,4.5,30.3,13.4c7.5,8.9,11.3,21,11.3,36.2c0,16.5-3.8,29.6-11.4,39.2
		C873.2,121.1,862.9,125.9,850,125.9z M850.2,33c-9.3,0-16.5,3.6-21.7,10.8c-5.1,7.2-7.7,17.2-7.7,30.2c0,13.2,2.6,23.4,7.7,30.6
		c5.1,7.2,12.3,10.8,21.5,10.8c9,0,16.2-3.8,21.4-11.3c5.3-7.5,7.9-17.7,7.9-30.6c0-13-2.5-23-7.6-30C866.9,36.6,859.6,33,850.2,33z
		"/>
	<path class="st0" d="M949.7,103.5c0,7.3,2.5,10.9,7.4,10.9c0.8,0,1.9-0.1,3.5-0.4c1.5-0.2,2.7-0.4,3.5-0.4c1.3,0,2.3,0.5,3.3,1.4
		c0.9,0.9,1.4,2,1.4,3.3c0,3.4-2.2,5.1-6.5,5.1c-0.2,0-0.5,0-0.9,0c-0.5-0.1-0.8-0.1-1-0.1l-7.1-1c-2.7-0.4-5.8-0.6-9.2-0.6
		c-3.7,0-6.9,0.2-9.7,0.6l-7.3,1c-0.3,0-0.6,0-1,0.1c-0.5,0-0.8,0-1,0c-4.3,0-6.4-1.7-6.4-5.1c0-3.1,1.5-4.7,4.7-4.7
		c0.8,0,1.9,0.1,3.5,0.4c1.5,0.2,2.7,0.4,3.5,0.4c4.8,0,7.3-3.6,7.3-10.9V93.4V80.6V68.2V44.5c0-6.9-3.5-10.3-10.6-10.3h-4.5
		c-7,0-10.5,3.4-10.5,10.2c0,2.4,0,4.1,0.1,4.9l0.6,5.4c0.1,0.9,0.1,2.1,0.1,3.6c0,6.1-1.9,9.2-5.7,9.2c-3.6,0-5.4-2.2-5.4-6.7
		c0-1.3,0.1-3.4,0.3-6.5c0.3-4.7,0.4-7.6,0.4-8.9c0-2.4-0.1-4.9-0.2-7.6c-0.3-5.1-0.5-7.3-0.5-6.5c0-4.1,1.8-6.1,5.5-6.1
		c1.4,0,4.5,0.1,9.4,0.4c0.5,0,4.4,0.2,11.9,0.6h16.5c1.9,0,7.1-0.1,15.5-0.3c1.8,0,5-0.1,9.4-0.4c4-0.3,7.1-0.4,9.3-0.4
		c4.8,0,7.3,2,7.3,6v0.3c0,1-0.1,2.8-0.4,5.4c-0.2,2.6-0.5,5.4-0.8,8.4v1.6c0,1.5,0.1,3.7,0.4,6.8c0.4,4.1,0.6,6.6,0.6,7.6
		c0,4-1.9,6-5.7,6c-3.7,0-5.5-2.4-5.5-7.3c0-1.8,0.1-4.4,0.4-7.8c0.3-3.5,0.4-6.1,0.4-7.8c0-6.7-3.8-10.1-11.5-10.1h-4.1
		c-3.6,0-6.2,0.8-7.7,2.3c-1.6,1.5-2.4,4-2.6,7.5l-0.6,10.2V103.5z"/>
	<path class="st0" d="M1042.3,103.5c0,7.3,2.5,10.9,7.4,10.9c0.8,0,1.9-0.1,3.5-0.4c1.5-0.2,2.7-0.4,3.5-0.4c1.3,0,2.3,0.5,3.3,1.4
		c0.9,0.9,1.4,2,1.4,3.3c0,3.4-2.2,5.1-6.5,5.1c-0.2,0-0.5,0-0.9,0c-0.5-0.1-0.8-0.1-1-0.1l-7.1-1c-2.7-0.4-5.8-0.6-9.2-0.6
		c-3.7,0-6.9,0.2-9.7,0.6l-7.3,1c-0.3,0-0.6,0-1,0.1c-0.5,0-0.8,0-1,0c-4.3,0-6.4-1.7-6.4-5.1c0-3.1,1.5-4.7,4.7-4.7
		c0.8,0,1.9,0.1,3.5,0.4c1.5,0.2,2.7,0.4,3.5,0.4c4.8,0,7.3-3.6,7.3-10.9V93.4V80.6V68.2V44.5c0-6.9-3.5-10.3-10.6-10.3h-4.5
		c-7,0-10.5,3.4-10.5,10.2c0,2.4,0,4.1,0.1,4.9l0.6,5.4c0.1,0.9,0.1,2.1,0.1,3.6c0,6.1-1.9,9.2-5.7,9.2c-3.6,0-5.4-2.2-5.4-6.7
		c0-1.3,0.1-3.4,0.3-6.5c0.3-4.7,0.4-7.6,0.4-8.9c0-2.4-0.1-4.9-0.2-7.6c-0.3-5.1-0.5-7.3-0.5-6.5c0-4.1,1.8-6.1,5.5-6.1
		c1.4,0,4.5,0.1,9.4,0.4c0.5,0,4.4,0.2,11.9,0.6h16.5c1.9,0,7.1-0.1,15.5-0.3c1.8,0,5-0.1,9.4-0.4c4-0.3,7.1-0.4,9.3-0.4
		c4.8,0,7.3,2,7.3,6v0.3c0,1-0.1,2.8-0.4,5.4c-0.2,2.6-0.5,5.4-0.8,8.4v1.6c0,1.5,0.1,3.7,0.4,6.8c0.4,4.1,0.6,6.6,0.6,7.6
		c0,4-1.9,6-5.7,6c-3.7,0-5.5-2.4-5.5-7.3c0-1.8,0.1-4.4,0.4-7.8c0.3-3.5,0.4-6.1,0.4-7.8c0-6.7-3.8-10.1-11.5-10.1h-4.1
		c-3.6,0-6.2,0.8-7.7,2.3c-1.6,1.5-2.4,4-2.6,7.5l-0.6,10.2V103.5z"/>
	<path class="st0" d="M1130.4,125.9c-12.9,0-23.1-4.7-30.6-14c-7.5-9.3-11.3-21.9-11.3-37.8c0-16.1,3.8-28.7,11.3-37.9
		c7.6-9.2,18-13.7,31.3-13.7c12.7,0,22.8,4.5,30.3,13.4c7.5,8.9,11.3,21,11.3,36.2c0,16.5-3.8,29.6-11.4,39.2
		C1153.6,121.1,1143.3,125.9,1130.4,125.9z M1130.6,33c-9.3,0-16.5,3.6-21.7,10.8c-5.1,7.2-7.7,17.2-7.7,30.2
		c0,13.2,2.6,23.4,7.7,30.6c5.1,7.2,12.3,10.8,21.5,10.8c9,0,16.2-3.8,21.4-11.3c5.3-7.5,7.9-17.7,7.9-30.6c0-13-2.5-23-7.6-30
		C1147.3,36.6,1140,33,1130.6,33z"/>
	<path class="st0" d="M1256.1,116.5c9.1,0,16.3-3.6,21.7-10.8c5.3-7.2,8.1-17.1,8.4-29.7c-5.4,9.9-15.1,14.8-28.9,14.8
		c-10.1,0-18.3-3-24.6-9.1c-6.3-6.1-9.4-13.9-9.4-23.6c0-10.2,3.5-18.6,10.4-25.4c6.9-6.7,15.7-10.1,26.2-10.1
		c12,0,21.5,4.2,28.3,12.7c6.9,8.5,10.3,20.1,10.3,35c0,17.3-3.8,31-11.5,40.8c-7.7,9.9-18.2,14.8-31.7,14.8c-8.5,0-15.8-2-21.7-6.1
		c-6-4.1-8.9-9.1-8.9-15c0-2.8,0.9-5.2,2.7-7.1c1.8-1.9,4-2.8,6.6-2.8c2.1,0,4,0.7,5.5,2.1c1.5,1.4,2.3,3.1,2.3,5
		c0,2.8-1.4,4.9-4.2,6.3C1240.6,113.8,1246.8,116.5,1256.1,116.5z M1260.2,32.9c-7.3,0-13.2,2.3-17.7,6.8
		c-4.5,4.6-6.8,10.5-6.8,17.7c0,7.1,2.1,12.7,6.4,16.9c4.3,4.2,10,6.3,17.2,6.3c7.6,0,13.5-2.1,17.8-6.3c4.3-4.2,6.5-9.8,6.5-17
		c0-7.4-2.2-13.3-6.5-17.7C1272.8,35.1,1267.1,32.9,1260.2,32.9z"/>
	<path class="st0" d="M1333.9,89.2l-0.4-42.2c-0.1-4.9-0.6-8.2-1.5-9.9c-0.9-1.6-2.7-2.5-5.5-2.5c-1,0-2.4,0.1-4.2,0.4
		c-1.8,0.2-3.2,0.4-4.2,0.4c-3.8,0-5.7-1.7-5.7-5.1c0-3.4,1.8-5.1,5.4-5.1c1.2,0,3,0.1,5.5,0.4c2.5,0.2,4.4,0.4,5.7,0.4
		c3.1,0,5.7-0.1,7.7-0.3c3-0.3,4.8-0.4,5.5-0.4c2.1,0,3.4,0.6,3.9,1.9c0.4,0.9,0.6,2.4,0.6,4.5c0,0.3-0.1,1.5-0.1,3.5
		c-0.5,10.4-0.7,19.8-0.7,28.2v16.4c0,3,0,7,0.1,12.1c0.2,6.1,0.3,10.1,0.3,12.1c0.1,6.7,2.3,10,6.7,10c1.1,0,2.7-0.1,4.8-0.4
		c2.1-0.2,3.7-0.4,4.8-0.4c4.7,0,7,1.7,7,5.1c0,3.4-2.1,5.1-6.4,5.1c-1.6,0-3.2-0.1-4.7-0.3c-8.1-1.1-14.3-1.6-18.6-1.6
		c-4.3,0-9.5,0.4-15.7,1.2c-3.5,0.5-6,0.7-7.4,0.7c-4.2,0-6.3-1.7-6.3-5.2c0-3.3,2.4-5,7.1-5c1.5,0,3,0.1,4.5,0.4
		c2.3,0.2,3.8,0.3,4.4,0.3c3.4,0,5.5-1.3,6.3-4C1333.5,107.2,1333.9,100.3,1333.9,89.2z"/>
	<path class="st0" d="M1415.1,89.2l-0.4-42.2c-0.1-4.9-0.6-8.2-1.5-9.9c-0.9-1.6-2.7-2.5-5.5-2.5c-1,0-2.4,0.1-4.2,0.4
		c-1.8,0.2-3.2,0.4-4.2,0.4c-3.8,0-5.7-1.7-5.7-5.1c0-3.4,1.8-5.1,5.4-5.1c1.2,0,3,0.1,5.5,0.4c2.5,0.2,4.4,0.4,5.7,0.4
		c3.1,0,5.7-0.1,7.7-0.3c3-0.3,4.8-0.4,5.5-0.4c2.1,0,3.4,0.6,3.9,1.9c0.4,0.9,0.6,2.4,0.6,4.5c0,0.3-0.1,1.5-0.1,3.5
		c-0.5,10.4-0.7,19.8-0.7,28.2v16.4c0,3,0,7,0.1,12.1c0.2,6.1,0.3,10.1,0.3,12.1c0.1,6.7,2.3,10,6.7,10c1.1,0,2.7-0.1,4.8-0.4
		c2.1-0.2,3.7-0.4,4.8-0.4c4.7,0,7,1.7,7,5.1c0,3.4-2.1,5.1-6.4,5.1c-1.6,0-3.2-0.1-4.7-0.3c-8.1-1.1-14.3-1.6-18.6-1.6
		c-4.3,0-9.5,0.4-15.7,1.2c-3.5,0.5-6,0.7-7.4,0.7c-4.2,0-6.3-1.7-6.3-5.2c0-3.3,2.4-5,7.1-5c1.5,0,3,0.1,4.5,0.4
		c2.3,0.2,3.8,0.3,4.4,0.3c3.4,0,5.5-1.3,6.3-4C1414.7,107.2,1415.1,100.3,1415.1,89.2z"/>
</g>
</svg>
